  0
SECTION
  2
HEADER
  9
$EXTMIN
 10
91.744800
 20
78.968600
  9
$EXTMAX
 10
97.586800
 20
84.709000
  9
$LIMMIN
 10
91.744800
 20
78.968600
  9
$LIMMAX
 10
97.586800
 20
84.709000
  9
$FILLMODE
 70
  1
  0
ENDSEC
  0
SECTION
  2
TABLES
  0
TABLE
  2
LTYPE
 70
  1
  0
LTYPE
  2
CONTINUOUS
 70
 64
  3
Solid line
 72
 65
 73
  0
 40
0.0
  0
ENDTAB
  0
TABLE
  2
LAYER
 70
 1
  0
LAYER
  2
0
 70
  0
 62
7
  6
CONTINUOUS
  0
LAYER
  2
gtl
 70
  0
 62
1
  6
CONTINUOUS
  0
LAYER
  2
gbl
 70
  0
 62
5
  6
CONTINUOUS
  0
LAYER
  2
gto
 70
  0
 62
4
  6
CONTINUOUS
  0
LAYER
  2
gtp
 70
  0
 62
8
  6
CONTINUOUS
  0
LAYER
  2
gts
 70
  0
 62
1
  6
CONTINUOUS
  0
LAYER
  2
gbs
 70
  0
 62
6
  6
CONTINUOUS
  0
LAYER
  2
gbp
 70
  0
 62
1
  6
CONTINUOUS
  0
LAYER
  2
gbo
 70
  0
 62
1
  6
CONTINUOUS
  0
LAYER
  2
gm1
 70
  0
 62
6
  6
CONTINUOUS
  0
LAYER
  2
gm3
 70
  0
 62
1
  6
CONTINUOUS
  0
LAYER
  2
gko
 70
  0
 62
6
  6
CONTINUOUS
  0
ENDTAB
  0
TABLE
  2
STYLE
 70
  1
  0
STYLE
  2
STANDARD
 70
  0
 40
0.0
 41
1.0
 50
0.0
 71
  0
 42
0.2
  3
txt
  4

  0
ENDTAB
  0
ENDSEC
  0
SECTION
  2
BLOCKS
  0
BLOCK
  8
0
  2
D10
 70
64
 10
0.0
 20
0.0
  3
D10
  0
POLYLINE
  8
0
 66
1
 10
0.0
 20
0.0
 40
0
 41
0
 70
1
  0
VERTEX
  8
0
 10
0.248920
 20
-0.124460
 42
0
  0
VERTEX
  8
0
 10
0.248920
 20
0.124460
 42
0
  0
VERTEX
  8
0
 10
0.124460
 20
0.248920
 42
0
  0
VERTEX
  8
0
 10
-0.124460
 20
0.248920
 42
0
  0
VERTEX
  8
0
 10
-0.248920
 20
0.124460
 42
0
  0
VERTEX
  8
0
 10
-0.248920
 20
-0.124460
 42
0
  0
VERTEX
  8
0
 10
-0.124460
 20
-0.248920
 42
0
  0
VERTEX
  8
0
 10
0.124460
 20
-0.248920
 42
0
  0
SEQEND
  8
0
  0
CIRCLE
  8
0
 10
0.124460
 20
-0.124460
 40
0.125000
  0
CIRCLE
  8
0
 10
0.124460
 20
0.124460
 40
0.125000
  0
CIRCLE
  8
0
 10
-0.124460
 20
0.124460
 40
0.125000
  0
CIRCLE
  8
0
 10
-0.124460
 20
-0.124460
 40
0.125000
 0
ENDBLK
  8
0
  0
BLOCK
  8
0
  2
D11
 70
64
 10
0.0
 20
0.0
  3
D11
  0
POLYLINE
  8
0
 66
1
 10
0.0
 20
0.0
 40
0
 41
0
 70
1
  0
VERTEX
  8
0
 10
0.424180
 20
-0.137160
 42
0
  0
VERTEX
  8
0
 10
0.424180
 20
0.137160
 42
0
  0
VERTEX
  8
0
 10
0.287020
 20
0.274320
 42
0
  0
VERTEX
  8
0
 10
-0.287020
 20
0.274320
 42
0
  0
VERTEX
  8
0
 10
-0.424180
 20
0.137160
 42
0
  0
VERTEX
  8
0
 10
-0.424180
 20
-0.137160
 42
0
  0
VERTEX
  8
0
 10
-0.287020
 20
-0.274320
 42
0
  0
VERTEX
  8
0
 10
0.287020
 20
-0.274320
 42
0
  0
SEQEND
  8
0
  0
CIRCLE
  8
0
 10
0.287020
 20
-0.137160
 40
0.137500
  0
CIRCLE
  8
0
 10
0.287020
 20
0.137160
 40
0.137500
  0
CIRCLE
  8
0
 10
-0.287020
 20
0.137160
 40
0.137500
  0
CIRCLE
  8
0
 10
-0.287020
 20
-0.137160
 40
0.137500
 0
ENDBLK
  8
0
  0
BLOCK
  8
0
  2
D12
 70
64
 10
0.0
 20
0.0
  3
D12
  0
POLYLINE
  8
0
 66
1
 10
0.0
 20
0.0
 40
0
 41
0
 70
1
  0
VERTEX
  8
0
 10
0.137160
 20
0.424180
 42
0
  0
VERTEX
  8
0
 10
-0.137160
 20
0.424180
 42
0
  0
VERTEX
  8
0
 10
-0.274320
 20
0.287020
 42
0
  0
VERTEX
  8
0
 10
-0.274320
 20
-0.287020
 42
0
  0
VERTEX
  8
0
 10
-0.137160
 20
-0.424180
 42
0
  0
VERTEX
  8
0
 10
0.137160
 20
-0.424180
 42
0
  0
VERTEX
  8
0
 10
0.274320
 20
-0.287020
 42
0
  0
VERTEX
  8
0
 10
0.274320
 20
0.287020
 42
0
  0
SEQEND
  8
0
  0
CIRCLE
  8
0
 10
0.137160
 20
0.287020
 40
0.137500
  0
CIRCLE
  8
0
 10
-0.137160
 20
0.287020
 40
0.137500
  0
CIRCLE
  8
0
 10
-0.137160
 20
-0.287020
 40
0.137500
  0
CIRCLE
  8
0
 10
0.137160
 20
-0.287020
 40
0.137500
 0
ENDBLK
  8
0
  0
BLOCK
  8
0
  2
D13
 70
64
 10
0.0
 20
0.0
  3
D13
  0
CIRCLE
  8
0
 10
0.000000
 20
0.000000
 40
0.050000
 0
ENDBLK
  8
0
  0
BLOCK
  8
0
  2
D14
 70
64
 10
0.0
 20
0.0
  3
D14
  0
CIRCLE
  8
0
 10
0.000000
 20
0.000000
 40
0.063500
 0
ENDBLK
  8
0
  0
BLOCK
  8
0
  2
D1010
 70
64
 10
0.0
 20
0.0
  3
D1010
 0
ENDBLK
  8
0
  0
ENDSEC
  0
SECTION
  2
ENTITIES
  0
INSERT
  8
gtl
  2
D10
 10
94.291689
 20
81.224162
 41
1.0
 42
1.0
 43
1.0
 50
0.0
  0
INSERT
  8
gtl
  2
D10
 10
95.040690
 20
81.224162
 41
1.0
 42
1.0
 43
1.0
 50
0.0
  0
INSERT
  8
gtl
  2
D10
 10
94.291689
 20
82.024164
 41
1.0
 42
1.0
 43
1.0
 50
0.0
  0
INSERT
  8
gtl
  2
D10
 10
95.041690
 20
82.024164
 41
1.0
 42
1.0
 43
1.0
 50
0.0
  0
INSERT
  8
gtl
  2
D11
 10
92.303685
 20
82.024164
 41
1.0
 42
1.0
 43
1.0
 50
0.0
  0
INSERT
  8
gtl
  2
D11
 10
92.303685
 20
81.224162
 41
1.0
 42
1.0
 43
1.0
 50
0.0
  0
INSERT
  8
gtl
  2
D11
 10
92.303685
 20
80.424161
 41
1.0
 42
1.0
 43
1.0
 50
0.0
  0
INSERT
  8
gtl
  2
D11
 10
97.030694
 20
80.422161
 41
1.0
 42
1.0
 43
1.0
 50
0.0
  0
INSERT
  8
gtl
  2
D11
 10
97.030694
 20
81.222462
 41
1.0
 42
1.0
 43
1.0
 50
0.0
  0
INSERT
  8
gtl
  2
D11
 10
97.030694
 20
82.022864
 41
1.0
 42
1.0
 43
1.0
 50
0.0
  0
INSERT
  8
gtl
  2
D11
 10
97.030694
 20
82.823166
 41
1.0
 42
1.0
 43
1.0
 50
0.0
  0
INSERT
  8
gtl
  2
D12
 10
92.414685
 20
79.510159
 41
1.0
 42
1.0
 43
1.0
 50
0.0
  0
INSERT
  8
gtl
  2
D12
 10
93.164986
 20
79.510159
 41
1.0
 42
1.0
 43
1.0
 50
0.0
  0
INSERT
  8
gtl
  2
D12
 10
93.915388
 20
79.510159
 41
1.0
 42
1.0
 43
1.0
 50
0.0
  0
INSERT
  8
gtl
  2
D12
 10
94.665689
 20
79.510159
 41
1.0
 42
1.0
 43
1.0
 50
0.0
  0
INSERT
  8
gtl
  2
D12
 10
95.415991
 20
79.510159
 41
1.0
 42
1.0
 43
1.0
 50
0.0
  0
INSERT
  8
gtl
  2
D12
 10
96.166392
 20
79.510159
 41
1.0
 42
1.0
 43
1.0
 50
0.0
  0
INSERT
  8
gtl
  2
D12
 10
96.916694
 20
79.510159
 41
1.0
 42
1.0
 43
1.0
 50
0.0
  0
INSERT
  8
gtl
  2
D12
 10
96.917694
 20
83.737167
 41
1.0
 42
1.0
 43
1.0
 50
0.0
  0
INSERT
  8
gtl
  2
D12
 10
96.167292
 20
83.737167
 41
1.0
 42
1.0
 43
1.0
 50
0.0
  0
INSERT
  8
gtl
  2
D12
 10
95.416891
 20
83.737167
 41
1.0
 42
1.0
 43
1.0
 50
0.0
  0
INSERT
  8
gtl
  2
D12
 10
94.666489
 20
83.737167
 41
1.0
 42
1.0
 43
1.0
 50
0.0
  0
INSERT
  8
gtl
  2
D12
 10
93.916088
 20
83.737167
 41
1.0
 42
1.0
 43
1.0
 50
0.0
  0
INSERT
  8
gtl
  2
D12
 10
93.165686
 20
83.737167
 41
1.0
 42
1.0
 43
1.0
 50
0.0
  0
POLYLINE
  8
gto
 62
4
 40
0.000000
 41
0.000000
 66
  1
  0
VERTEX
  8
gto
 10
92.058384
 20
83.371867
  0
VERTEX
  8
gto
 10
92.402285
 20
83.160566
  0
VERTEX
  8
gto
 10
92.058384
 20
83.160566
  0
VERTEX
  8
gto
 10
92.058384
 20
83.064666
  0
VERTEX
  8
gto
 10
92.570685
 20
83.064666
  0
VERTEX
  8
gto
 10
92.570685
 20
83.168366
  0
VERTEX
  8
gto
 10
92.234584
 20
83.375767
  0
VERTEX
  8
gto
 10
92.570685
 20
83.375767
  0
VERTEX
  8
gto
 10
92.570685
 20
83.471667
  0
VERTEX
  8
gto
 10
92.058384
 20
83.471667
  0
VERTEX
  8
gto
 10
92.058384
 20
83.371867
  0
SEQEND
  8
gto
  0
POLYLINE
  8
gto
 62
4
 40
0.000000
 41
0.000000
 66
  1
  0
VERTEX
  8
gto
 10
92.058384
 20
82.586665
  0
VERTEX
  8
gto
 10
92.144884
 20
82.586665
  0
VERTEX
  8
gto
 10
92.144884
 20
82.737165
  0
VERTEX
  8
gto
 10
92.570685
 20
82.737165
  0
VERTEX
  8
gto
 10
92.570685
 20
82.840866
  0
VERTEX
  8
gto
 10
92.144884
 20
82.840866
  0
VERTEX
  8
gto
 10
92.144884
 20
82.991366
  0
VERTEX
  8
gto
 10
92.058384
 20
82.991366
  0
VERTEX
  8
gto
 10
92.058384
 20
82.586665
  0
SEQEND
  8
gto
  0
POLYLINE
  8
gto
 62
4
 40
0.000000
 41
0.000000
 66
  1
  0
VERTEX
  8
gto
 10
92.058384
 20
83.841368
  0
VERTEX
  8
gto
 10
92.058384
 20
83.732167
  0
VERTEX
  8
gto
 10
92.570685
 20
83.526267
  0
VERTEX
  8
gto
 10
92.570685
 20
83.638567
  0
VERTEX
  8
gto
 10
92.454485
 20
83.682267
  0
VERTEX
  8
gto
 10
92.454485
 20
83.888868
  0
VERTEX
  8
gto
 10
92.570685
 20
83.930968
  0
VERTEX
  8
gto
 10
92.570685
 20
84.040168
  0
VERTEX
  8
gto
 10
92.058384
 20
83.841368
  0
SEQEND
  8
gto
  0
POLYLINE
  8
gto
 62
4
 40
0.000000
 41
0.000000
 66
  1
  0
VERTEX
  8
gto
 10
92.367985
 20
83.856968
  0
VERTEX
  8
gto
 10
92.367985
 20
83.715767
  0
VERTEX
  8
gto
 10
92.177684
 20
83.787568
  0
VERTEX
  8
gto
 10
92.367985
 20
83.856968
  0
SEQEND
  8
gto
  0
POLYLINE
  8
gto
 62
4
 40
0.000000
 41
0.000000
 66
  1
  0
VERTEX
  8
gto
 10
93.026686
 20
84.510169
  0
VERTEX
  8
gto
 10
93.026686
 20
84.510169
  0
VERTEX
  8
gto
 10
93.026686
 20
84.510169
 42
1.000000
  0
VERTEX
  8
gto
 10
93.331087
 20
84.510169
  0
VERTEX
  8
gto
 10
93.331087
 20
84.510169
  0
VERTEX
  8
gto
 10
93.331087
 20
84.510169
 42
1.000000
  0
VERTEX
  8
gto
 10
93.026686
 20
84.510169
  0
VERTEX
  8
gto
 10
93.026686
 20
84.510169
  0
SEQEND
  8
gto
  0
POLYLINE
  8
gto
 62
4
 40
0.000000
 41
0.000000
 66
  1
  0
VERTEX
  8
gto
 10
92.840686
 20
82.359165
  0
VERTEX
  8
gto
 10
91.794684
 20
82.359165
  0
SEQEND
  8
gto
  0
POLYLINE
  8
gto
 62
4
 40
0.000000
 41
0.000000
 66
  1
  0
VERTEX
  8
gto
 10
92.840686
 20
82.359165
  0
VERTEX
  8
gto
 10
92.840686
 20
84.236168
  0
VERTEX
  8
gto
 10
91.803684
 20
84.236168
  0
SEQEND
  8
gto
  0
POLYLINE
  8
gto
 62
4
 40
0.000000
 41
0.000000
 66
  1
  0
VERTEX
  8
gto
 10
93.309387
 20
83.171866
  0
VERTEX
  8
gto
 10
93.073986
 20
83.171866
  0
SEQEND
  8
gto
  0
POLYLINE
  8
gto
 62
4
 40
0.000000
 41
0.000000
 66
  1
  0
VERTEX
  8
gto
 10
93.073986
 20
82.936466
  0
VERTEX
  8
gto
 10
93.073986
 20
83.171866
  0
SEQEND
  8
gto
  0
POLYLINE
  8
gto
 62
4
 40
0.000000
 41
0.000000
 66
  1
  0
VERTEX
  8
gto
 10
93.309387
 20
83.171866
  0
VERTEX
  8
gto
 10
93.073986
 20
82.936466
  0
SEQEND
  8
gto
  0
POLYLINE
  8
gto
 62
4
 40
0.000000
 41
0.000000
 66
  1
  0
VERTEX
  8
gto
 10
97.526695
 20
84.232168
  0
VERTEX
  8
gto
 10
91.809684
 20
84.232168
  0
SEQEND
  8
gto
  0
POLYLINE
  8
gto
 62
4
 40
0.000000
 41
0.000000
 66
  1
  0
VERTEX
  8
gto
 10
97.526695
 20
79.016158
  0
VERTEX
  8
gto
 10
97.526695
 20
84.232168
  0
SEQEND
  8
gto
  0
POLYLINE
  8
gto
 62
4
 40
0.000000
 41
0.000000
 66
  1
  0
VERTEX
  8
gto
 10
97.526695
 20
79.016158
  0
VERTEX
  8
gto
 10
91.809684
 20
79.016158
  0
VERTEX
  8
gto
 10
91.809684
 20
84.232168
  0
SEQEND
  8
gto
  0
INSERT
  8
gtp
  2
D10
 10
94.291689
 20
81.224162
 41
1.0
 42
1.0
 43
1.0
 50
0.0
  0
INSERT
  8
gtp
  2
D10
 10
95.040690
 20
81.224162
 41
1.0
 42
1.0
 43
1.0
 50
0.0
  0
INSERT
  8
gtp
  2
D10
 10
94.291689
 20
82.024164
 41
1.0
 42
1.0
 43
1.0
 50
0.0
  0
INSERT
  8
gtp
  2
D10
 10
95.041690
 20
82.024164
 41
1.0
 42
1.0
 43
1.0
 50
0.0
  0
INSERT
  8
gtp
  2
D11
 10
92.303685
 20
82.024164
 41
1.0
 42
1.0
 43
1.0
 50
0.0
  0
INSERT
  8
gtp
  2
D11
 10
92.303685
 20
81.224162
 41
1.0
 42
1.0
 43
1.0
 50
0.0
  0
INSERT
  8
gtp
  2
D11
 10
92.303685
 20
80.424161
 41
1.0
 42
1.0
 43
1.0
 50
0.0
  0
INSERT
  8
gtp
  2
D11
 10
97.030694
 20
80.422161
 41
1.0
 42
1.0
 43
1.0
 50
0.0
  0
INSERT
  8
gtp
  2
D11
 10
97.030694
 20
81.222462
 41
1.0
 42
1.0
 43
1.0
 50
0.0
  0
INSERT
  8
gtp
  2
D11
 10
97.030694
 20
82.022864
 41
1.0
 42
1.0
 43
1.0
 50
0.0
  0
INSERT
  8
gtp
  2
D11
 10
97.030694
 20
82.823166
 41
1.0
 42
1.0
 43
1.0
 50
0.0
  0
INSERT
  8
gtp
  2
D12
 10
92.414685
 20
79.510159
 41
1.0
 42
1.0
 43
1.0
 50
0.0
  0
INSERT
  8
gtp
  2
D12
 10
93.164986
 20
79.510159
 41
1.0
 42
1.0
 43
1.0
 50
0.0
  0
INSERT
  8
gtp
  2
D12
 10
93.915388
 20
79.510159
 41
1.0
 42
1.0
 43
1.0
 50
0.0
  0
INSERT
  8
gtp
  2
D12
 10
94.665689
 20
79.510159
 41
1.0
 42
1.0
 43
1.0
 50
0.0
  0
INSERT
  8
gtp
  2
D12
 10
95.415991
 20
79.510159
 41
1.0
 42
1.0
 43
1.0
 50
0.0
  0
INSERT
  8
gtp
  2
D12
 10
96.166392
 20
79.510159
 41
1.0
 42
1.0
 43
1.0
 50
0.0
  0
INSERT
  8
gtp
  2
D12
 10
96.916694
 20
79.510159
 41
1.0
 42
1.0
 43
1.0
 50
0.0
  0
INSERT
  8
gtp
  2
D12
 10
96.917694
 20
83.737167
 41
1.0
 42
1.0
 43
1.0
 50
0.0
  0
INSERT
  8
gtp
  2
D12
 10
96.167292
 20
83.737167
 41
1.0
 42
1.0
 43
1.0
 50
0.0
  0
INSERT
  8
gtp
  2
D12
 10
95.416891
 20
83.737167
 41
1.0
 42
1.0
 43
1.0
 50
0.0
  0
INSERT
  8
gtp
  2
D12
 10
94.666489
 20
83.737167
 41
1.0
 42
1.0
 43
1.0
 50
0.0
  0
INSERT
  8
gtp
  2
D12
 10
93.916088
 20
83.737167
 41
1.0
 42
1.0
 43
1.0
 50
0.0
  0
INSERT
  8
gtp
  2
D12
 10
93.165686
 20
83.737167
 41
1.0
 42
1.0
 43
1.0
 50
0.0
  0
INSERT
  8
gts
  2
D10
 10
94.291689
 20
81.224162
 41
1.0
 42
1.0
 43
1.0
 50
0.0
  0
INSERT
  8
gts
  2
D10
 10
95.040690
 20
81.224162
 41
1.0
 42
1.0
 43
1.0
 50
0.0
  0
INSERT
  8
gts
  2
D10
 10
94.291689
 20
82.024164
 41
1.0
 42
1.0
 43
1.0
 50
0.0
  0
INSERT
  8
gts
  2
D10
 10
95.041690
 20
82.024164
 41
1.0
 42
1.0
 43
1.0
 50
0.0
  0
INSERT
  8
gts
  2
D11
 10
92.303685
 20
82.024164
 41
1.0
 42
1.0
 43
1.0
 50
0.0
  0
INSERT
  8
gts
  2
D11
 10
92.303685
 20
81.224162
 41
1.0
 42
1.0
 43
1.0
 50
0.0
  0
INSERT
  8
gts
  2
D11
 10
92.303685
 20
80.424161
 41
1.0
 42
1.0
 43
1.0
 50
0.0
  0
INSERT
  8
gts
  2
D11
 10
97.030694
 20
80.422161
 41
1.0
 42
1.0
 43
1.0
 50
0.0
  0
INSERT
  8
gts
  2
D11
 10
97.030694
 20
81.222462
 41
1.0
 42
1.0
 43
1.0
 50
0.0
  0
INSERT
  8
gts
  2
D11
 10
97.030694
 20
82.022864
 41
1.0
 42
1.0
 43
1.0
 50
0.0
  0
INSERT
  8
gts
  2
D11
 10
97.030694
 20
82.823166
 41
1.0
 42
1.0
 43
1.0
 50
0.0
  0
INSERT
  8
gts
  2
D12
 10
92.414685
 20
79.510159
 41
1.0
 42
1.0
 43
1.0
 50
0.0
  0
INSERT
  8
gts
  2
D12
 10
93.164986
 20
79.510159
 41
1.0
 42
1.0
 43
1.0
 50
0.0
  0
INSERT
  8
gts
  2
D12
 10
93.915388
 20
79.510159
 41
1.0
 42
1.0
 43
1.0
 50
0.0
  0
INSERT
  8
gts
  2
D12
 10
94.665689
 20
79.510159
 41
1.0
 42
1.0
 43
1.0
 50
0.0
  0
INSERT
  8
gts
  2
D12
 10
95.415991
 20
79.510159
 41
1.0
 42
1.0
 43
1.0
 50
0.0
  0
INSERT
  8
gts
  2
D12
 10
96.166392
 20
79.510159
 41
1.0
 42
1.0
 43
1.0
 50
0.0
  0
INSERT
  8
gts
  2
D12
 10
96.916694
 20
79.510159
 41
1.0
 42
1.0
 43
1.0
 50
0.0
  0
INSERT
  8
gts
  2
D12
 10
96.917694
 20
83.737167
 41
1.0
 42
1.0
 43
1.0
 50
0.0
  0
INSERT
  8
gts
  2
D12
 10
96.167292
 20
83.737167
 41
1.0
 42
1.0
 43
1.0
 50
0.0
  0
INSERT
  8
gts
  2
D12
 10
95.416891
 20
83.737167
 41
1.0
 42
1.0
 43
1.0
 50
0.0
  0
INSERT
  8
gts
  2
D12
 10
94.666489
 20
83.737167
 41
1.0
 42
1.0
 43
1.0
 50
0.0
  0
INSERT
  8
gts
  2
D12
 10
93.916088
 20
83.737167
 41
1.0
 42
1.0
 43
1.0
 50
0.0
  0
INSERT
  8
gts
  2
D12
 10
93.165686
 20
83.737167
 41
1.0
 42
1.0
 43
1.0
 50
0.0
  0
ENDSEC
  0
EOF
